<svg width="24" height="24" viewBox="0 0 24 24" fill="none" xmlns="http://www.w3.org/2000/svg">
<mask id="mask0_31502_6945" style="mask-type:alpha" maskUnits="userSpaceOnUse" x="0" y="0" width="24" height="24">
<rect width="24" height="24" fill="#D9D9D9"/>
</mask>
<g mask="url(#mask0_31502_6945)">
<path d="M12.0499 19.75C9.88324 19.75 8.04157 18.996 6.5249 17.488C5.00824 15.9793 4.2499 14.15 4.2499 12V11.225L2.9249 12.55C2.7749 12.6833 2.5999 12.75 2.3999 12.75C2.1999 12.75 2.0249 12.6833 1.8749 12.55C1.7249 12.4 1.6499 12.2207 1.6499 12.012C1.6499 11.804 1.7249 11.6333 1.8749 11.5L4.3749 9C4.45824 8.9 4.5539 8.83333 4.6619 8.8C4.77057 8.76667 4.88324 8.75 4.9999 8.75C5.11657 8.75 5.22924 8.76667 5.3379 8.8C5.4459 8.83333 5.54157 8.9 5.6249 9L8.1249 11.5C8.2749 11.6333 8.3499 11.804 8.3499 12.012C8.3499 12.2207 8.2749 12.4 8.1249 12.55C7.9749 12.6833 7.7999 12.75 7.5999 12.75C7.3999 12.75 7.2249 12.6833 7.0749 12.55L5.7499 11.225V12C5.7499 13.7333 6.36257 15.2083 7.5879 16.425C8.81257 17.6417 10.2999 18.25 12.0499 18.25C12.3832 18.25 12.7206 18.221 13.0619 18.163C13.4039 18.1043 13.7416 18.0167 14.0749 17.9C14.1916 17.8333 14.3249 17.8167 14.4749 17.85C14.6249 17.8833 14.7416 17.95 14.8249 18.05C15.0582 18.2667 15.1499 18.504 15.0999 18.762C15.0499 19.0207 14.8832 19.2 14.5999 19.3C14.1832 19.4333 13.7626 19.5417 13.3379 19.625C12.9126 19.7083 12.4832 19.75 12.0499 19.75ZM18.9999 15.25C18.8832 15.25 18.7709 15.2333 18.6629 15.2C18.5542 15.1667 18.4582 15.1 18.3749 15L15.8749 12.5C15.7249 12.3667 15.6499 12.1957 15.6499 11.987C15.6499 11.779 15.7249 11.6 15.8749 11.45C16.0249 11.3167 16.1999 11.25 16.3999 11.25C16.5999 11.25 16.7749 11.3167 16.9249 11.45L18.2499 12.775V12C18.2499 10.2667 17.6376 8.79167 16.4129 7.575C15.1876 6.35833 13.6999 5.75 11.9499 5.75C11.6166 5.75 11.2792 5.77933 10.9379 5.838C10.5959 5.896 10.2582 5.98333 9.9249 6.1C9.80824 6.16667 9.6749 6.18333 9.5249 6.15C9.3749 6.11667 9.25824 6.05 9.1749 5.95C8.94157 5.73333 8.8499 5.49567 8.8999 5.237C8.9499 4.979 9.11657 4.8 9.3999 4.7C9.81657 4.56667 10.2376 4.45833 10.6629 4.375C11.0876 4.29167 11.5166 4.25 11.9499 4.25C14.1166 4.25 15.9582 5.004 17.4749 6.512C18.9916 8.02067 19.7499 9.85 19.7499 12V12.775L21.0749 11.45C21.2249 11.3167 21.3999 11.25 21.5999 11.25C21.7999 11.25 21.9749 11.3167 22.1249 11.45C22.2749 11.6 22.3499 11.779 22.3499 11.987C22.3499 12.1957 22.2749 12.3667 22.1249 12.5L19.6249 15C19.5416 15.1 19.4456 15.1667 19.3369 15.2C19.2289 15.2333 19.1166 15.25 18.9999 15.25Z" fill="#FFFFFF"/>
</g>
</svg>
